<?xml version="1.0" encoding="UTF-8"?>
<svg width="24px" height="24px" viewBox="0 0 24 24" version="1.1" xmlns="http://www.w3.org/2000/svg" xmlns:xlink="http://www.w3.org/1999/xlink">
    <title>Group 3 Copy</title>
    <defs>
        <polygon id="path-1" points="0 0 24 0 24 24 0 24"></polygon>
    </defs>
    <g id="About-Page" stroke="none" stroke-width="1" fill="none" fill-rule="evenodd">
        <g id="About-–-Mobile" transform="translate(-277.000000, -14.000000)">
            <g id="Group-3-Copy" transform="translate(277.000000, 14.000000)">
                <mask id="mask-2" fill="white">
                    <use xlink:href="#path-1"></use>
                </mask>
                <g id="Clip-2"></g>
                <path d="M0.283665472,11.0121693 L0,10.7300743 C0.708913533,10.0243386 2.55949304,9.1556257 4.72575669,8.86306434 C6.37121654,8.6387839 7.85608271,8.80225942 9.07279246,9.32109482 L0.403235221,0.684802924 L0.687400984,0.402209578 L9.35695823,9.03899988 C8.83565413,7.82639033 8.67255899,6.34713627 8.89618944,4.7083939 C9.19086134,2.54981933 10.0623697,0.706234165 10.7712832,0 L11.0539481,0.283091747 C10.409072,0.925032188 9.5730843,2.71329485 9.29342116,4.76222121 C9.10431085,6.14727748 9.04727758,8.73048968 10.7847911,10.4619346 L10.5011257,10.744528 C8.76311182,9.01258462 6.1716001,9.07139594 4.77978821,9.2577979 C2.72358876,9.53690244 0.928541649,10.3702288 0.283665472,11.0121693 L0.283665472,11.0121693 Z M23.7163345,11.0121693 C23.0714584,10.3702288 21.2764112,9.53690244 19.2202118,9.2577979 C17.8278996,9.07139594 15.2358876,9.01258462 13.4988743,10.744528 L13.2152089,10.4619346 C14.9527224,8.73048968 14.8951889,6.14777589 14.7060785,4.76222121 C14.4269157,2.71329485 13.5904277,0.925032188 12.9455516,0.283091747 L13.229217,0 C14.4249145,1.1906799 16.0583674,5.73061428 14.6470441,9.03501267 L23.3120987,0.402209578 L23.5962645,0.684802924 L14.9272075,9.32159322 C16.143417,8.80225942 17.6272826,8.6387839 19.2742433,8.86306434 C21.440507,9.1556257 23.2910865,10.0243386 24,10.7300743 L23.7163345,11.0121693 Z M13.229217,24 L12.9455516,23.7169083 C14.2933378,22.3742161 16.2349704,16.5464136 13.2152089,13.5380654 L13.4988743,13.255472 C15.2368882,14.9879138 17.8304011,14.9291025 19.2202118,14.7417037 C21.2764112,14.4630976 23.0714584,13.6297712 23.7163345,12.9878307 L24,13.2699257 C23.2910865,13.9756614 21.440507,14.8438759 19.2742433,15.1369357 C17.6272826,15.3607177 16.143417,15.1967438 14.9272075,14.6784068 L23.5962645,23.3151971 L23.3120987,23.5977904 L14.6470441,14.9649873 C16.0583674,18.2693857 14.4249145,22.8093201 13.229217,24 L13.229217,24 Z M10.7712832,24 C10.0623697,23.2942642 9.19086134,21.4501807 8.89618944,19.2921045 C8.67255899,17.6533621 8.83565413,16.1731113 9.35695823,14.9610001 L0.687400984,23.5977904 L0.403235221,23.3151971 L9.07279246,14.6779084 C7.85608271,15.1967438 6.37121654,15.3607177 4.72575669,15.1369357 C2.55949304,14.8438759 0.708913533,13.9756614 0,13.2699257 L0.283665472,12.9878307 C0.928541649,13.6297712 2.72358876,14.4630976 4.77978821,14.7417037 C6.1716001,14.9286041 8.76361211,14.986917 10.5011257,13.255472 L10.7847911,13.5380654 C9.04727758,15.2695103 9.10431085,17.8527225 9.29342116,19.2382772 C9.5730843,21.2867052 10.409072,23.0749678 11.0539481,23.7169083 L10.7712832,24 Z" id="Fill-1" stroke="#FBF1DC" stroke-width="0.6" fill="#FBF1DC" mask="url(#mask-2)"></path>
            </g>
        </g>
    </g>
</svg>