<svg xmlns="http://www.w3.org/2000/svg" xmlns:xlink="http://www.w3.org/1999/xlink" viewBox="0 0 55 55"><defs><path d="M.65 25.277 0 24.643c1.625-1.588 5.866-3.543 10.83-4.201 3.77-.505 7.174-.137 9.962 1.03L.924 2.041l.651-.636 19.868 19.433c-1.195-2.729-1.568-6.057-1.056-9.744C21.062 6.237 23.06 2.089 24.684.5l.648.637c-1.478 1.444-3.394 5.468-4.035 10.078-.433 3.116-.564 8.929 3.418 12.824l-.65.636c-3.983-3.897-9.922-3.764-13.111-3.345-4.712.628-8.826 2.503-10.304 3.947Zm53.7 0c-1.478-1.444-5.592-3.319-10.304-3.947-3.19-.42-9.13-.552-13.111 3.345l-.65-.636c3.982-3.895 3.85-9.707 3.416-12.824-.64-4.61-2.556-8.634-4.034-10.078l.65-.637c2.74 2.679 6.483 12.894 3.25 20.329L53.423 1.405l.65.636-19.866 19.433c2.787-1.169 6.188-1.537 9.962-1.032 4.964.658 9.205 2.613 10.83 4.2l-.65.635ZM30.317 54.5l-.65-.637c3.089-3.021 7.538-16.134.618-22.902l.65-.636c3.983 3.898 9.926 3.765 13.111 3.344 4.712-.627 8.826-2.502 10.304-3.946l.65.634c-1.625 1.588-5.866 3.542-10.83 4.201-3.774.504-7.175.135-9.962-1.032L54.075 52.96l-.651.636-19.858-19.424c3.234 7.435-.509 17.65-3.249 20.329Zm-5.633 0c-1.624-1.588-3.622-5.737-4.297-10.593-.512-3.687-.139-7.017 1.056-9.745L1.575 53.595l-.65-.636 19.867-19.434c-2.788 1.168-6.191 1.537-9.962 1.033-4.964-.66-9.205-2.613-10.83-4.2l.65-.635c1.478 1.444 5.592 3.319 10.304 3.946 3.19.42 9.13.552 13.111-3.344l.65.636c-3.982 3.895-3.851 9.708-3.418 12.825.641 4.61 2.557 8.633 4.035 10.077l-.648.637Z" id="a"/></defs><use fill="#FBF1DC" xlink:href="#a" fill-rule="evenodd"/></svg>