<svg width="213" height="80" xmlns="http://www.w3.org/2000/svg" xmlns:xlink="http://www.w3.org/1999/xlink"><defs><path id="a" d="M0 0h213v80H0z"/></defs><g fill="none" fill-rule="evenodd"><mask id="b" fill="#fff"><use xlink:href="#a"/></mask><path d="M25.16 78.382c11.617 0 20.716-9.943 20.716-22.635 0-15.012-7.52-22.624-22.35-22.624h-8.415v32.778c0 9.104 1.015 12.256 6.845 12.48h3.205ZM15.11 14.217v17.815h8.962c7.171 0 12.17-7.999 12.17-15.178 0-7.281-4.103-15.118-13.112-15.118h-1.036c-5.954.179-6.983 3.305-6.983 12.48Zm27.537 59.617c-4.918 3.568-11.454 5.699-17.486 5.699H0v-1.151h.96c5.925-.248 8.429-3.598 8.429-12.689V14.285c0-9.146-2.534-12.347-8.535-12.549H0V.584H23.13c1.94 0 18.952.457 18.952 16.27 0 5.803-2.557 10.392-7.395 13.27-1.739 1.034-3.59 1.737-5.295 2.201 15.004 1.554 22.607 9.41 22.607 23.422 0 9.34-5.086 14.992-9.352 18.087Zm170.286 4.548c-7.483-.028-12.228-4.816-17.893-14.677l-19.152-33.281 7.392-15.417c4.605-9.047 10.447-13.271 18.318-13.271h.16V.584H189.15L189 .544l-.02.04h-10.84v1.152h.289c3.64 0 5.955.76 6.88 2.26.993 1.608.2 3.786-.472 5.228l-.238.497-.13.263-.174.35c-.065.137-.131.283-.197.432L162.154 56.53V14.217c0-8.607 2.244-11.948 7.51-12.481h1.878V.584h-24.499v1.152h1.013l-.788.011c6.454 0 9.164 3.1 9.164 12.56v51.594c0 8.606-2.244 11.947-7.509 12.48h-1.88v1.152h24.5v-1.151h-1.881c-5.265-.534-7.508-3.875-7.508-12.48v-6.835l10.489-21.875 19.95 34.572c-.006-.004-.01-.008-.015-.01 3.435 5.94-.132 6.578-2.45 6.628h-.849l-.309-.003.032.003h-.053v1.15H213v-1.15h-.067ZM88.331 63.132 75.494 26.338l-13.826 36.96.252-.164H88.33Zm20.454 15.25.014 1.15H85.402l-.015-1.15h.227c1.633-.006 7.974-.18 6.095-5.567l-3.04-8.714H61.368l-2.06 5.503-.018.076-.088.238c-.46 1.203-1.539 4.02-.158 6.032 1.109 1.614 3.577 2.432 7.336 2.432h.224v1.15h-11.01l-.016.045-.168-.044H42.53v-1.151h.225c7.93 0 13.354-4.198 17.005-13.186l15.157-40.515-5.879-16.85c-2.263-5.713-7.02-6-11.4-6l.024-1.379h14.773L96.399 69.19c2.463 7.062 5.939 9.19 12.394 9.19l-.13.002h.122Zm38.746-18.34c0 12.567-8.838 19.958-22.94 19.958-15.175 0-22.927-12.09-22.927-24.775v-3.404l8.649-8.155.833.915s-3.655 3.836-3.655 13.683c0 12.018 6.296 20.553 17.068 20.553 10.573 0 16.902-7.103 16.902-18.26 0-12.521-9.509-17.352-17.24-23.338-9.082-7.03-16.053-12.01-16.053-21.938 0-8.124 5.54-15.281 16.99-15.281 8.143 0 13.263 4.21 16.429 10.125l-2.726 10.41-1.158-.317s.274-19.048-12.546-19.048c-6.92 0-12.375 6.271-12.375 12.678 0 8.59 10.534 14.984 17.003 20.057 8.803 6.903 17.746 13.359 17.746 26.136Z" fill="#FBF1DC" mask="url(#b)"/></g></svg>