<?xml version="1.0" encoding="UTF-8"?>
<svg width="1405px" height="526px" viewBox="0 0 1405 526" version="1.1" xmlns="http://www.w3.org/2000/svg" xmlns:xlink="http://www.w3.org/1999/xlink">
    <title>Fill 1</title>
    <g id="Homepage" stroke="none" stroke-width="1" fill="none" fill-rule="evenodd">
        <g id="-" transform="translate(-18.000000, -238.000000)" fill="#FBF1DC">
            <g id="Group-3" transform="translate(18.000000, 238.000000)">
                <path d="M165.965655,515.360091 C242.590642,515.360091 302.61034,449.989498 302.61034,366.533461 C302.61034,267.832092 253.011063,217.78489 155.18425,217.78489 L99.6738507,217.78489 L99.6738507,433.300092 C99.6738507,493.155585 106.370114,513.882993 144.823993,515.360091 L164.485618,515.360091 L164.879693,515.360091 L165.965655,515.360091 Z M99.6738507,93.4744839 L99.6738507,210.612558 L157.299018,210.612558 L158.309774,210.612558 L158.782063,210.612558 C206.089088,210.612558 239.056002,158.019463 239.056002,110.815374 C239.056002,62.9417875 211.994193,11.4144849 152.573128,11.4144849 L148.767749,11.4144849 L147.341861,11.4144849 L145.735479,11.4144849 C106.466377,12.5913597 99.6738507,33.1416357 99.6738507,93.4744839 L99.6738507,93.4744839 Z M281.309243,485.457863 C248.871773,508.920304 205.755177,522.928717 165.965655,522.928717 L164.879693,522.928717 L164.485618,522.928717 L0,522.928717 L0,515.360091 L6.33828706,515.360091 C45.4118564,513.729879 61.9299078,491.702505 61.9299078,431.934076 L61.9299078,93.9218164 C61.9299078,33.7871155 45.2193313,12.7444736 5.63135898,11.4144849 L0,11.4144849 L0,3.84285657 L147.281696,3.84285657 L148.767749,3.84285657 L152.573128,3.84285657 C165.367022,3.84285657 277.585086,6.84508827 277.585086,110.815374 C277.585086,148.970737 260.718083,179.140163 228.804041,198.060227 C217.333757,204.863284 205.126462,209.486721 193.875777,212.536989 C292.845708,222.753583 342.995487,274.403977 342.995487,366.533461 C342.995487,427.950115 309.447989,465.105734 281.309243,485.457863 L281.309243,485.457863 Z M1404.55779,515.360091 C1355.19917,515.176955 1323.90181,483.698555 1286.5339,418.86236 L1160.20134,200.035696 L1208.96132,98.671347 C1239.33817,39.1851281 1277.87027,11.4144849 1329.78887,11.4144849 L1330.84174,11.4144849 L1330.84174,3.84285657 L1247.68293,3.84285657 L1246.68722,3.57866018 L1246.55786,3.84285657 L1175.05284,3.84285657 L1175.05284,11.4144849 L1176.96004,11.4144849 C1200.97454,11.4144849 1216.24419,16.4132007 1222.34783,26.2695273 C1228.8967,36.8493918 1223.66543,51.1640326 1219.23133,60.6480825 L1217.66105,63.9145106 C1217.36023,64.5239636 1217.06844,65.1003921 1216.7977,65.6437961 C1216.37053,66.4994321 1215.98247,67.2740079 1215.65759,67.9465078 C1215.22441,68.8471773 1214.78822,69.8048892 1214.35804,70.7836167 L1069.60625,371.691295 L1069.60625,93.4744839 C1069.60625,36.8854186 1084.40661,14.9180893 1119.14235,11.4144849 L1131.53615,11.4144849 L1131.53615,3.84285657 L969.932396,3.84285657 L969.932396,11.4144849 L976.613618,11.4144849 L971.412432,11.4865385 C1013.99056,11.4865385 1031.86531,31.8686895 1031.86531,94.0689258 L1031.86531,433.300092 C1031.86531,489.883153 1017.06495,511.853484 982.335223,515.360091 L969.932396,515.360091 L969.932396,522.928717 L1131.53615,522.928717 L1131.53615,515.360091 L1119.13032,515.360091 C1084.4036,511.853484 1069.60625,489.883153 1069.60625,433.300092 L1069.60625,388.36569 L1138.79495,244.537776 L1270.38585,471.845745 C1270.35276,471.821727 1270.31967,471.797709 1270.28959,471.776693 C1292.9504,510.83873 1269.42022,515.03585 1254.13553,515.360091 L1248.53125,515.360091 C1247.79724,515.351084 1247.10235,515.342077 1246.49469,515.342077 L1246.70527,515.360091 L1246.35631,515.360091 L1246.35631,522.928717 L1405,522.928717 L1405,515.360091 L1404.55779,515.360091 Z M582.656138,415.097561 L497.978187,173.168724 L406.778448,416.175362 L408.438977,415.097561 L582.656138,415.097561 Z M717.574113,515.360091 L717.667368,522.928717 L563.33444,522.928717 L563.235169,515.360091 L564.730246,515.360091 C575.502627,515.324064 617.331712,514.183216 604.934901,478.759884 L604.934901,478.762886 L584.882209,421.462292 L404.796042,421.462292 L391.213998,457.648191 L391.09367,458.143559 L390.513086,459.707722 C387.4748,467.618602 380.360396,486.148376 389.466231,499.370205 C396.782185,509.980092 413.062588,515.360091 437.859218,515.360091 L439.339255,515.360091 L439.339255,522.928717 L366.709163,522.928717 L366.603876,523.216931 L365.496857,522.928717 L280.542151,522.928717 L280.542151,515.360091 L282.022188,515.360091 C334.325841,515.360091 370.105426,487.760575 394.19212,428.664646 L494.1698,162.27963 L455.394043,51.4942781 C440.461315,13.9273528 409.082733,12.0329446 380.194945,12.0329446 L380.354379,2.97220938 L477.79915,2.97220938 L635.874285,454.925167 C652.11859,501.357682 675.044117,515.348082 717.625253,515.348082 L716.761898,515.360091 L717.574113,515.360091 Z M973.151175,394.772453 C973.151175,477.405878 914.85217,526 821.832468,526 C721.737468,526 670.59799,446.503907 670.59799,363.104913 L670.59799,340.726278 L727.64859,287.103417 L733.14458,293.119889 C733.14458,293.119889 709.039837,318.34464 709.039837,383.087767 C709.039837,462.106505 750.568101,518.22422 821.621893,518.22422 C891.3611,518.22422 933.108963,471.521504 933.108963,398.161972 C933.108963,315.834775 870.390906,284.074165 819.392814,244.71791 C759.487428,198.489546 713.504012,165.75021 713.504012,100.475688 C713.504012,47.0599818 750.044673,0 825.568658,0 C879.286167,0 913.05928,27.6835785 933.939228,66.5714856 L915.959189,135.016364 L908.321358,132.935817 C908.321358,132.935817 910.132297,7.69471984 825.568658,7.69471984 C779.916145,7.69471984 743.93501,48.92737 743.93501,91.0486807 C743.93501,147.529666 813.421528,189.569916 856.095918,222.92471 C914.163291,268.309447 973.151175,310.758001 973.151175,394.772453 L973.151175,394.772453 Z" id="Fill-1"></path>
            </g>
        </g>
    </g>
</svg>