<svg width="197" height="74" xmlns="http://www.w3.org/2000/svg" xmlns:xlink="http://www.w3.org/1999/xlink"><defs><path id="a" d="M0 0h197v74H0z"/></defs><g fill="none" fill-rule="evenodd"><mask id="b" fill="#fff"><use xlink:href="#a"/></mask><path d="M23.27 72.503c10.744 0 19.16-9.196 19.16-20.937 0-13.886-6.954-20.927-20.671-20.927h-7.783v30.32c0 8.42.939 11.336 6.33 11.544H23.271ZM13.977 13.15v16.48h8.287c6.633 0 11.256-7.4 11.256-14.04 0-6.735-3.795-13.984-12.126-13.984h-.959c-5.506.165-6.458 3.057-6.458 11.544Zm25.467 55.146c-4.548 3.301-10.593 5.272-16.172 5.272H0v-1.065h.889c5.478-.23 7.794-3.328 7.794-11.737V13.213c0-8.46-2.343-11.42-7.893-11.607H0V.54h21.393C23.187.54 38.92.963 38.92 15.59c0 5.368-2.365 9.612-6.84 12.274-1.608.957-3.32 1.608-4.897 2.037 13.877 1.437 20.909 8.703 20.909 21.665 0 8.64-4.704 13.867-8.65 16.73Zm157.495 4.207c-6.92-.026-11.31-4.454-16.549-13.576l-17.713-30.785 6.837-14.26c4.259-8.37 9.662-12.276 16.941-12.276h.148V.54h-11.66l-.14-.038-.018.038h-10.026v1.065h.268c3.367 0 5.508.703 6.364 2.09.918 1.488.184 3.502-.437 4.836l-.22.46-.122.243-.16.324c-.06.127-.121.261-.182.4L149.973 52.29v-39.14c0-7.962 2.075-11.052 6.946-11.545h1.738V.54h-22.66v1.065h.937l-.729.01c5.97 0 8.476 2.867 8.476 11.618v47.725c0 7.96-2.075 11.05-6.944 11.544h-1.74v1.065h22.66v-1.065h-1.74c-4.869-.493-6.944-3.584-6.944-11.544v-6.322l9.701-20.234 18.451 31.978-.013-.01c3.177 5.496-.122 6.087-2.265 6.132h-.786l-.286-.002.03.002h-.049v1.065H197v-1.065h-.062ZM81.696 58.398 69.823 24.362 57.036 58.55l.233-.151h24.427Zm18.918 14.105.013 1.065h-21.64l-.014-1.065h.21c1.51-.005 7.375-.165 5.637-5.149l-2.812-8.06h-25.25l-1.905 5.09-.016.07-.082.22c-.426 1.113-1.423 3.72-.147 5.58 1.026 1.492 3.309 2.25 6.786 2.25h.207v1.064H51.418l-.015.04-.155-.04H39.336v-1.065h.207c7.334 0 12.35-3.883 15.728-12.197L69.29 22.83 63.852 7.244C61.76 1.96 57.36 1.693 53.308 1.693l.023-1.275h13.663l22.164 63.583c2.278 6.532 5.492 8.5 11.463 8.5l-.121.002h.114Zm35.835-16.965c0 11.626-8.174 18.462-21.217 18.462-14.035 0-21.205-11.184-21.205-22.917v-3.148l8-7.544.77.846s-3.38 3.55-3.38 12.657c0 11.117 5.823 19.012 15.785 19.012 9.779 0 15.632-6.57 15.632-16.89 0-11.583-8.793-16.051-15.944-21.588-8.4-6.504-14.847-11.11-14.847-20.293C100.043 6.621 105.166 0 115.756 0c7.532 0 12.267 3.895 15.195 9.366l-2.521 9.629-1.071-.293s.254-17.62-11.603-17.62c-6.401 0-11.446 5.801-11.446 11.727 0 7.946 9.743 13.86 15.726 18.553 8.142 6.385 16.413 12.357 16.413 24.176Z" fill="#A67C52" mask="url(#b)"/></g></svg>